<svg id="Layer_1" data-name="Layer 1" xmlns="http://www.w3.org/2000/svg" viewBox="0 0 59.02 237.93"><defs><style>.cls-1{fill:#fff;}.cls-2{fill:#2e3192;}.cls-3{fill:#c1272d;}</style></defs><title>baber-pole</title><path class="cls-1" d="M59.07,77.72h0A2.92,2.92,0,0,0,62,74.79V67.33a2.59,2.59,0,0,0-.82-1.86,6.53,6.53,0,0,0-2.54-1.39c-1.34-6.53-5.83-12.22-12.4-15.68l-.19-.09-.11-.05a3.88,3.88,0,0,1-2.23-2.93A3.42,3.42,0,0,1,45,42.15a21.74,21.74,0,1,0-25.07-.06l.07,0a3.45,3.45,0,0,1,1.27,3.19,3.89,3.89,0,0,1-2.35,3l-.12.06C12.19,51.83,7.69,57.52,6.35,64.07,4.67,64.62,3,65.52,3,67.33v7.46a2.92,2.92,0,0,0,2.93,2.93h.23V197.41H5.92a2.93,2.93,0,0,0-2,.74,3,3,0,0,0-1,2.19v7.47c0,2,2.08,2.91,4.08,3.48,2.57,7.4,9.23,13.17,17.71,15.4a9.09,9.09,0,1,0,15.44,0c8.48-2.23,15.15-8,17.71-15.42a7.67,7.67,0,0,0,3.26-1.6A2.6,2.6,0,0,0,62,207.8v-7.47a3,3,0,0,0-1-2.19,2.92,2.92,0,0,0-2-.74h-.23V77.71Z" transform="translate(-2.98 -2.64)"/><path class="cls-2" d="M9.37,174.46c1.56-11.09,13.73-19.09,25.5-26.83,8.39-5.52,16.47-10.82,20.74-17.16v10.74c0,9.38-10.91,16.55-22.47,24.15-9.32,6.13-18.88,12.41-23.77,20.5Z" transform="translate(-2.98 -2.64)"/><path class="cls-3" d="M32.51,198c3,0,6.13,0,9.17-.15,7-5,13.93-11,13.93-18.38V168.68c-4.27,6.34-12.35,11.65-20.74,17.16-5.67,3.73-11.5,7.56-16.15,11.77,4.59.22,9.22.34,13.79.34Z" transform="translate(-2.98 -2.64)"/><path class="cls-2" d="M9.37,109.43c4.89-8.08,14.45-14.37,23.77-20.5,6.15-4,12-7.89,16.23-12.05-5.7-.28-11.42-.42-17-.42-1.79,0-3.59,0-5.37.05C18.91,82.17,10.62,89.15,9.37,98Z" transform="translate(-2.98 -2.64)"/><path class="cls-3" d="M9.37,147.65c4.89-8.09,14.45-14.38,23.77-20.5,11.56-7.6,22.47-14.78,22.47-24.15V92.25c-4.27,6.34-12.35,11.65-20.74,17.17-11.77,7.73-23.94,15.74-25.5,26.83Z" transform="translate(-2.98 -2.64)"/><path d="M59,77.52h0a2.91,2.91,0,0,0,2.92-2.92V67.15a2.61,2.61,0,0,0-.81-1.85,6.61,6.61,0,0,0-2.54-1.38c-1.34-6.52-5.81-12.2-12.37-15.65L46,48.18l-.11,0a3.89,3.89,0,0,1-2.22-2.92,3.42,3.42,0,0,1,1.26-3.17A21.68,21.68,0,1,0,20,42L20,42a3.42,3.42,0,0,1,1.27,3.18,3.86,3.86,0,0,1-2.34,3l-.13,0c-6.57,3.45-11,9.13-12.39,15.65-1.68.56-3.36,1.45-3.36,3.25V74.6a3,3,0,0,0,1,2.19A2.93,2.93,0,0,0,6,77.53h.23V196.89H6a2.93,2.93,0,0,0-1.95.73,3,3,0,0,0-1,2.19v7.45c0,2,2.07,2.9,4.07,3.47,2.57,7.38,9.21,13.13,17.66,15.35a9.07,9.07,0,1,0,15.4,0c8.46-2.22,15.11-8,17.67-15.37a7.75,7.75,0,0,0,3.25-1.6,2.61,2.61,0,0,0,.81-1.85v-7.45A2.91,2.91,0,0,0,59,196.89h-.23V77.52Zm.54,121.67a.82.82,0,0,1,.28.62v7.45a.55.55,0,0,1-.2.36c-.9.89-3.74,1.58-7.59,2.08h0c-1.84.24-3.92.44-6.12.59l0,0v0c-4.14.29-8.72.43-13,.43h-.29c-3.1,0-11-.08-18-.83-1.48-.17-2.71-.34-3.76-.52h0c-5.4-.92-5.59-2-5.59-2.1v-7.45A.81.81,0,0,1,6,199h.1c4.63.54,10.48,1.06,26.41,1.06s21.79-.52,26.41-1.06A.85.85,0,0,1,59.54,199.19Zm-27,38.64a7,7,0,0,1-4.61-12.17l1,.14a3.67,3.67,0,0,0-1.26,1.06,3.73,3.73,0,0,0-.25,4.16,6.35,6.35,0,0,1,1.31-3.34A6.56,6.56,0,0,1,30.6,226c.62,0,1.25.07,1.89.07a29.16,29.16,0,0,0,4.61-.37,7,7,0,0,1-4.61,12.17ZM9.41,210.19A25,25,0,0,0,18.87,221l.26.17.7.4c.29.17.63.35,1,.53s.77.38,1.19.55a12.57,12.57,0,0,0,3.39,1c0-.1-1.55-.67-3-1.45-.37-.19-.73-.38-1.06-.59s-.66-.37-.91-.55l-.86-.57a24.15,24.15,0,0,1-8.34-10l.56.08A23.58,23.58,0,0,0,16,216.71s.66.67,1.37,1.26A5.22,5.22,0,0,0,19,219a8.09,8.09,0,0,0-1.12-1.36c-.57-.65-1.1-1.33-1.1-1.33a22.61,22.61,0,0,1-3.19-5.5l.44.05a4.77,4.77,0,0,0,1.13,1.47,2.38,2.38,0,0,0,.41.27c.21.12.45.19.5.12s0-.28-.11-.47l-.15-.37a3.93,3.93,0,0,1-.28-.86c6.7.66,14.05.74,17,.74h.15c1.47,0,6.9,0,12.61-.39a17.76,17.76,0,0,1-1.25,1.9l-.52.7c-.26.35-.52.71-.46.78s.44-.13.8-.37.7-.51.7-.51a19.17,19.17,0,0,0,2.54-2.63l.32,0a25.74,25.74,0,0,1-3.81,5s-.63.63-1.28,1.25-1.35,1.2-1.29,1.28a4.9,4.9,0,0,0,1.55-.81c.74-.48,1.43-1,1.43-1a27.14,27.14,0,0,0,5.27-5.73l-.13-.08.3,0a25,25,0,0,1-5.49,6.82s-.22.2-.57.49-.82.67-1.31,1a20.83,20.83,0,0,0-2,1.48,7.87,7.87,0,0,0,2.16-1,22.41,22.41,0,0,0,2-1.28,26.23,26.23,0,0,0,7-7.77h.11a23.42,23.42,0,0,1-7.64,8.35s-1.29.87-2.66,1.65a21.53,21.53,0,0,0-2.71,1.64,15.91,15.91,0,0,0,2.83-1.1c.69-.32,1.37-.65,1.88-.92s.83-.45.83-.45a24.62,24.62,0,0,0,9.36-9.42h0a26.15,26.15,0,0,1-9.33,10l-.27.17-.72.41c-.3.18-.65.38-1,.57s-.79.41-1.21.59c-1.68.79-3.46,1.33-3.44,1.43a13.53,13.53,0,0,0,3.48-.87c.42-.15.85-.31,1.23-.48s.76-.31,1.06-.46l1-.51a27.31,27.31,0,0,0,11.15-11.16l.58-.11C52.74,218.91,43.28,225,32.49,225s-20.24-6.06-23.35-14.85Zm2.18,6.41v0ZM9.1,212.72v0Zm5.77,7.19Zm35.25,0h0Zm5.77-7.21v0Zm-2.48,3.88,0,0ZM57,209.85h0Zm-.37-11.67c-4.39.44-10.61.82-24.18.82s-19.78-.38-24.18-.82V76.23c4.4-.44,10.62-.82,24.18-.82s19.78.38,24.18.82ZM32.49,74.36c-15.93,0-21.78.52-26.41,1.06a.85.85,0,0,1-.64-.2.82.82,0,0,1-.28-.62V67.15c0-.16.26-1.62,9.36-2.62,6.92-.75,14.87-.84,18-.84h.29c11.49,0,24.71,1,26.84,3.1a.55.55,0,0,1,.2.36V74.6a.82.82,0,0,1-.28.62.85.85,0,0,1-.64.2C54.27,74.88,48.42,74.36,32.49,74.36ZM19.73,50.15a6,6,0,0,0,3.63-4.64A5.55,5.55,0,0,0,23,42.62a20.53,20.53,0,0,0,19,0,5.53,5.53,0,0,0-.37,2.88,6,6,0,0,0,3.65,4.64l0,0c6,3.18,10.06,8.35,11.24,14.27-.71-.17-1.49-.33-2.32-.46h.09a13.54,13.54,0,0,0-3.24-8.18,22.42,22.42,0,0,0-6.69-5.47l-1.08-.56a4.53,4.53,0,0,1-1.87-1.57,6.3,6.3,0,0,1-.89-2.38,7.21,7.21,0,0,0-.21-1.18,3.29,3.29,0,0,0-.07,1.27,6.13,6.13,0,0,0,.82,2.73,4.89,4.89,0,0,0,1,1.18,9.13,9.13,0,0,0,1.13.73L44,51l.29.18a26.15,26.15,0,0,1,3.25,2.46,1.59,1.59,0,0,1,.13.13,15.7,15.7,0,0,0-3.09-2l-.93-.47a15.32,15.32,0,0,1-1.95-1.09,6.59,6.59,0,0,1-1.58-1.52c-.35-.5-.49-.89-.54-.88a2,2,0,0,0,.32,1.06,6.19,6.19,0,0,0,1.61,1.86,16.9,16.9,0,0,0,2,1.33l.93.55a15,15,0,0,1,5,4.78,12.42,12.42,0,0,1,1.7,4,13,13,0,0,0-1.75-3.44,19.16,19.16,0,0,0-4.64-4.44s-1.18-.83-2.42-1.53a14.72,14.72,0,0,0-2.56-1.29,19,19,0,0,0,2.38,1.81c.6.44,1.19.88,1.63,1.22l.71.58a17.56,17.56,0,0,1,4,4.42A10.44,10.44,0,0,1,50,63.43l-.52,0a16.21,16.21,0,0,0-4.62-8.09l-.5-.44A11.79,11.79,0,0,0,43.23,54a5.58,5.58,0,0,0-1.88-1c-.05.08.85.71,1.63,1.45.2.18.39.37.57.55s.34.34.47.49l.33.36.12.14a15.11,15.11,0,0,1,3.44,7.25l-.83-.07a14.52,14.52,0,0,0-2.62-5.82,12.19,12.19,0,0,0-1-1.12c-.53-.53-1.14-1-1.2-.91a7.35,7.35,0,0,0,.83,1.3c.42.63.78,1.28.78,1.28a13.4,13.4,0,0,1,1.65,5.16l-.45,0A11.79,11.79,0,0,0,43.78,59a8.91,8.91,0,0,0-.53-.84c-.3-.4-.64-.75-.72-.7s.11.52.27,1,.29.94.29.94a10.74,10.74,0,0,1,.45,3.58l-.42,0a15.69,15.69,0,0,0-.31-2.57s-.08-.33-.19-.64-.27-.62-.36-.61-.13.36-.17.7l-.06.67a13.44,13.44,0,0,1-.4,2.38c-4.25-.18-7.84-.2-9-.2h-.15c-3,0-10.45.08-17.21.76l.33-1.56s.2-1,0-1.1-.73.76-.73.76L14,62.91a22.68,22.68,0,0,1,1.25-3.23l.52-1.08c.27-.55.55-1.09.47-1.15s-.5.36-.88.81-.73.93-.73.93a23.88,23.88,0,0,0-2,3.4,20.58,20.58,0,0,1,3.79-6.46l.13-.16c.09-.09.21-.23.36-.4.3-.33.71-.75,1.14-1.17a19.51,19.51,0,0,0,1.75-1.65,7.52,7.52,0,0,0-2,1.18,15.14,15.14,0,0,0-1.25,1l-.54.49a21.93,21.93,0,0,0-5.12,7.69,17.27,17.27,0,0,1,3.26-5.85,34.54,34.54,0,0,1,6.61-5.84l1.11-.79a10.5,10.5,0,0,0,2.27-2.06,4.14,4.14,0,0,0,.9-2.94,1.91,1.91,0,0,0-.54-1.28,4.81,4.81,0,0,1,.26,1.24,4,4,0,0,1-.92,2.49,9,9,0,0,1-2.1,1.77l-1.1.69a37.16,37.16,0,0,0-7.25,5.8,17.63,17.63,0,0,0-4.39,8l-.55.12C9.64,58.5,13.7,53.33,19.73,50.15ZM12.91,24.32A19.58,19.58,0,1,1,32.49,43.89,19.6,19.6,0,0,1,12.91,24.32ZM44.29,41.23h0ZM9.89,57.86h0Zm-.61,20A250.71,250.71,0,0,1,55,77C39.26,77.7,25,77.94,9.28,77.83Zm46.42,119a216.33,216.33,0,0,1-46.42.35C25.33,197,39.85,196.84,55.7,196.86ZM55.65,80.64c1.05,38,.45,72.58-.2,110.1C54.3,152.87,54.92,118.49,55.65,80.64Zm-1.58,110.1c-.85-37.87-.22-72.25.19-110.1C55,118.64,54.42,153.22,54.07,190.74Zm-43.45,0c-.84-37.87-.21-72.25.2-110.1C11.59,118.64,11,153.22,10.62,190.74Zm41.91,0c-.84-37.87-.22-72.25.2-110.1C53.49,118.64,52.89,153.22,52.53,190.74Zm-43.23,0c-1.15-37.87-.53-72.25.2-110.1C10.55,118.65,10,153.22,9.3,190.74ZM58.84,73.12a1.48,1.48,0,0,1-.41,1,1.56,1.56,0,0,1-1.07.2L38.05,73.19v0l-.44-.08h0c-.76-.14-1.55-.25-2.34-.33,0,0-1.32-.14-1.33-.33S35.25,72,35.25,72c.67-.11,1.35-.21,2-.29v0c-.68-.13-1.38-.24-2.08-.33,0,0-1.32-.18-1.32-.37s1.37-.42,1.37-.42c.62-.09,1.26-.17,1.9-.23,0,0,0,0,0-.06l-2-.34s-1.3-.25-1.3-.44,1.39-.35,1.39-.35L37.13,69v-.1l-2-.38s-1.3-.28-1.29-.47,1.4-.32,1.4-.32l2-.15a.15.15,0,0,1,0-.07L35.17,67s-1.29-.3-1.28-.49,1.41-.29,1.41-.29l2.17-.12-2.31-.56s-1.29-.34-1.27-.52,1.41-.25,1.41-.25L38,64.7c.87-.25,5.76.13,6.34.17a74,74,0,0,1,11.57,1.55c1.17.25,2.82.32,3.26,1.66S59.06,71.66,58.84,73.12Zm-40.78,0c0,.19-1.39.33-1.39.33-.76.08-1.51.19-2.24.32a.77.77,0,0,1-.26.07l-.26,0h0l-6.34.43a1.62,1.62,0,0,1-1.13-.2A1.66,1.66,0,0,1,6,72.73c0-1.22,0-2.43-.07-3.65,0-.65-.24-1.58.3-2.06s2.5-.65,3.34-.83c1.21-.25,2.43-.47,3.65-.66a5,5,0,0,1,.56-.06h0l2.94.1s1.33.08,1.34.26-1.33.53-1.33.53l-1.62.4v.14l1.62.1s1.32.1,1.34.29-1.35.5-1.35.5l-1.58.34v.16l1.6.13s1.32.14,1.33.32-1.36.47-1.36.47l-1.59.31v.16l1.62.17s1.33.16,1.33.35-1.36.44-1.36.44L15,70.91V71c.58.06,1.15.13,1.72.21,0,0,1.31.23,1.31.42s-1.38.37-1.38.37c-.59.08-1.18.17-1.76.27v.09c.63.08,1.24.16,1.85.27C16.76,72.64,18.07,72.91,18.06,73.09Zm-1.3,128.66c-.61.11-1.22.2-1.85.27v.09c.58.1,1.17.19,1.76.27,0,0,1.37.19,1.38.37s-1.31.42-1.31.42c-.57.08-1.14.15-1.72.21v.1l1.66.29s1.36.25,1.36.44-1.33.35-1.33.35l-1.62.16v.16l1.59.31s1.36.28,1.36.47-1.33.32-1.33.32l-1.6.13v.16l1.58.34s1.36.32,1.35.5-1.34.29-1.34.29l-1.62.1v.15l1.62.39s1.35.34,1.33.53-1.34.26-1.34.26l-2.94.1h0a3.43,3.43,0,0,1-.56-.06c-1.22-.19-2.44-.41-3.65-.66-.84-.18-2.69-.25-3.34-.83s-.31-1.41-.3-2.06c0-1.22.05-2.43.07-3.65a1.66,1.66,0,0,1,.43-1.33,1.68,1.68,0,0,1,1.13-.2l6.34.43h0l.26,0a.77.77,0,0,1,.26.07c.73.14,1.48.24,2.24.32,0,0,1.38.14,1.39.33S16.76,201.75,16.76,201.75Zm17.13.14c0-.19,1.33-.33,1.33-.33.79-.08,1.58-.19,2.34-.32h0l.44-.08v0l19.31-1.11a1.56,1.56,0,0,1,1.07.2,1.51,1.51,0,0,1,.41,1c.22,1.45.75,3.6.28,5S57,207.72,55.86,208a76.4,76.4,0,0,1-11.57,1.55c-.58,0-5.47.41-6.34.16l-2.65-.09s-1.39-.07-1.41-.26,1.27-.52,1.27-.52l2.31-.56-2.17-.12s-1.4-.1-1.41-.29,1.28-.49,1.28-.49l2.08-.46a.13.13,0,0,1,0-.06l-2-.16s-1.39-.13-1.4-.32,1.29-.46,1.29-.46l2-.39v-.1l-1.85-.19s-1.39-.16-1.39-.35,1.3-.44,1.3-.44l2-.33s0,0,0-.07c-.64-.06-1.28-.14-1.9-.23,0,0-1.38-.23-1.37-.42s1.32-.37,1.32-.37c.7-.09,1.4-.2,2.08-.32v-.05c-.7-.08-1.38-.17-2-.29C35.25,202.35,33.88,202.08,33.89,201.89ZM38.33,232a6.18,6.18,0,0,1-3.1,3.92,6.59,6.59,0,0,1-5,.57,5.16,5.16,0,0,1-2.19-1.28A3.55,3.55,0,0,1,27,233a3.52,3.52,0,0,0,1.45,1.76,5.16,5.16,0,0,0,2.06.76,6.87,6.87,0,0,0,1.36,0,4.55,4.55,0,0,1-2.14-.84,6.39,6.39,0,0,0,2.74-.12,6.49,6.49,0,0,0,2.21-1.07,6.42,6.42,0,0,0,2.46-4.47,4.71,4.71,0,0,1,.1,2.9l.15-.31a6.88,6.88,0,0,0,.3-4.48A6.26,6.26,0,0,1,38.33,232Zm-6.67,2.14a12.71,12.71,0,0,0,2.43-1.88,14.67,14.67,0,0,0,2-2.29,3.68,3.68,0,0,1-4.45,4.17ZM44.08,36a18.7,18.7,0,0,0,1.25-1.57,17.05,17.05,0,0,1-9.44,6.07,18.48,18.48,0,0,0,7.46-5.35,18.19,18.19,0,0,0,3.95-7.83,18.12,18.12,0,0,0-.3-8.77,18.39,18.39,0,0,0-4.54-8A17,17,0,0,1,48.2,19a18.76,18.76,0,0,0-7.4-10.6,17.9,17.9,0,0,1,7.57,8A17.74,17.74,0,0,1,35,41.57,19.06,19.06,0,0,0,44.08,36Zm-29.45-14a20.24,20.24,0,0,0-.13,7.73,17.43,17.43,0,0,1,15-23.21A20.06,20.06,0,0,0,14.63,21.94ZM37.41,38.45a19,19,0,0,0,7.84-22.62,15.62,15.62,0,0,1-7.84,22.62Zm1.73-3a22.52,22.52,0,0,0,4.24-6.08,7.21,7.21,0,0,1-2.3,2.23c.58-1.37,1.05-2.56,1.6-3.72s1.13-2.3,1.8-3.63A7.29,7.29,0,0,1,44.37,27a20.87,20.87,0,0,0,1.24-5.58,12.58,12.58,0,0,1-6.47,14ZM26.33,40.08a28,28,0,0,0,4.48,1.69A16.33,16.33,0,0,1,15.75,31.72a27.48,27.48,0,0,0,3.88,4,15,15,0,0,1-1.4-2C19.92,34.92,21.47,36,23,37s3,2.17,4.65,3.37C27.2,40.31,26.76,40.2,26.33,40.08Z" transform="translate(-2.98 -2.64)"/></svg>