<svg id="Layer_1" data-name="Layer 1" xmlns="http://www.w3.org/2000/svg" viewBox="0 0 142.66 64.75"><defs><style>.cls-1{fill:#fff;}.cls-2{fill:#2e3192;}.cls-3{fill:#c1272d;}.cls-4{font-size:48px;font-family:BarberStreetPersonalUseOnly, Barber Street_PersonalUseOnly;opacity:0.97;}.cls-5{letter-spacing:0em;}</style></defs><title>barberLogo</title><path class="cls-1" d="M25.16,21h0a.67.67,0,0,0,.52,0,.74.74,0,0,0,.43-.42l.66-1.75a.61.61,0,0,0,0-.51,1.72,1.72,0,0,0-.47-.56,5.81,5.81,0,0,0-1.51-4.78l0,0,0,0a.94.94,0,0,1-.26-.89.84.84,0,0,1,.58-.63,5.46,5.46,0,1,0-5.87-2.26v0a.85.85,0,0,1,0,.86,1,1,0,0,1-.82.49h0A5.81,5.81,0,0,0,14,13c-.45,0-.92,0-1.09.46l-.66,1.75a.73.73,0,0,0,.42,1l.06,0L2,44.28l0,0a.7.7,0,0,0-.53,0,.72.72,0,0,0-.42.42L.36,46.43c-.18.47.22.87.64,1.19a6.28,6.28,0,0,0,2.78,5.19,2.25,2.25,0,0,0-.75,1,2.28,2.28,0,1,0,4.26,1.63,2.32,2.32,0,0,0,.11-1.25,6.27,6.27,0,0,0,5.53-2,2,2,0,0,0,.91-.09.67.67,0,0,0,.36-.36L14.87,50a.74.74,0,0,0,0-.6.71.71,0,0,0-.39-.35l0,0L25.1,20.93Z" transform="translate(-0.31 -0.61)"/><path class="cls-2" d="M4.84,39.19c1.36-2.46,4.93-3.25,8.38-4,2.47-.54,4.83-1.07,6.4-2.17l-1,2.52c-.84,2.2-4,2.91-7.43,3.65-2.74.6-5.54,1.22-7.41,2.68Z" transform="translate(-0.31 -0.61)"/><path class="cls-3" d="M8.16,46.77c.72.27,1.45.53,2.17.78,2.07-.54,4.25-1.34,4.91-3.06l1-2.52c-1.57,1.11-3.94,1.63-6.4,2.17A34.56,34.56,0,0,0,5,45.45c1.06.47,2.13.91,3.2,1.32Z" transform="translate(-0.31 -0.61)"/><path class="cls-2" d="M10.66,23.94c1.87-1.46,4.68-2.08,7.41-2.68A28.21,28.21,0,0,0,23,19.89c-1.32-.58-2.64-1.12-4-1.63l-1.26-.47c-2.4.61-5,1.5-6.06,3.47Z" transform="translate(-0.31 -0.61)"/><path class="cls-3" d="M7.24,32.9c1.87-1.46,4.68-2.08,7.41-2.68,3.39-.75,6.59-1.45,7.43-3.65l1-2.52c-1.58,1.1-3.94,1.63-6.4,2.17-3.46.76-7,1.54-8.39,4Z" transform="translate(-0.31 -0.61)"/><path d="M25.16,20.9h0a.77.77,0,0,0,.52,0,.74.74,0,0,0,.43-.42l.66-1.75a.69.69,0,0,0,0-.51,1.75,1.75,0,0,0-.48-.55,5.79,5.79,0,0,0-1.49-4.78l0,0,0,0a1,1,0,0,1-.26-.89.86.86,0,0,1,.58-.63,5.44,5.44,0,1,0-5.86-2.25v0a.88.88,0,0,1,0,.86,1,1,0,0,1-.82.49h0A5.83,5.83,0,0,0,14.05,13c-.45,0-.92,0-1.08.46L12.3,15.2a.74.74,0,0,0,0,.6.71.71,0,0,0,.39.35l0,0-10.69,28,0,0a.77.77,0,0,0-.52,0,.76.76,0,0,0-.43.43L.42,46.31c-.17.47.23.87.65,1.18a6.27,6.27,0,0,0,2.77,5.19,2.17,2.17,0,0,0-.75,1A2.28,2.28,0,1,0,7.34,55.3a2.22,2.22,0,0,0,.1-1.25A6.28,6.28,0,0,0,13,52a2,2,0,0,0,.9-.08.68.68,0,0,0,.36-.37l.66-1.74a.73.73,0,0,0-.42-1l-.05,0,10.68-28ZM14.39,49.48a.2.2,0,0,1,0,.17l-.67,1.75a.14.14,0,0,1-.07.06,4.19,4.19,0,0,1-2-.19h0c-.45-.11-1-.25-1.49-.41h0c-1-.31-2.08-.69-3.1-1.07l-.06,0A44.85,44.85,0,0,1,2.88,48L2,47.5H2c-1.18-.69-1.14-1-1.12-1l.66-1.74a.23.23,0,0,1,.12-.12.19.19,0,0,1,.15,0h0A54.06,54.06,0,0,0,8,47.26a53.47,53.47,0,0,0,6.29,2.12A.19.19,0,0,1,14.39,49.48Zm-9.8,6.64a1.75,1.75,0,0,1,0-3.27l.21.12a1,1,0,0,0-.39.14.93.93,0,0,0-.43,1,1.67,1.67,0,0,1,.61-.67,1.58,1.58,0,0,1,.61-.22l.44.18a7.42,7.42,0,0,0,1.11.33,1.75,1.75,0,0,1-2.17,2.44ZM1.65,47.57A6.27,6.27,0,0,0,2.9,51L3,51l.12.16.19.21.23.24a2.85,2.85,0,0,0,.71.54s-.31-.29-.58-.61c-.07-.08-.14-.15-.2-.23l-.16-.21-.15-.21a6,6,0,0,1-1.06-3.1l.12.07a6.17,6.17,0,0,0,.45,1.81,3.55,3.55,0,0,0,.21.42,1.17,1.17,0,0,0,.27.38A2.55,2.55,0,0,0,3,50.07c-.08-.2-.14-.41-.14-.41a5.61,5.61,0,0,1-.26-1.57l.1,0a1.18,1.18,0,0,0,.14.45.54.54,0,0,0,.07.09s.08.09.1.08,0-.07,0-.12v-.1a.87.87,0,0,1,0-.23c1.51.76,3.23,1.43,3.92,1.7H7c.34.13,1.62.61,3,1a4.84,4.84,0,0,1-.46.33l-.19.12c-.09.06-.18.12-.18.14s.12,0,.22,0l.21-.06a4.56,4.56,0,0,0,.84-.39l.07,0A5.74,5.74,0,0,1,9.12,52s-.2.1-.41.18a2.72,2.72,0,0,0-.42.19,1.23,1.23,0,0,0,.44,0c.22-.05.43-.12.43-.12a6.65,6.65,0,0,0,1.75-.87l0,0,.08,0a6.45,6.45,0,0,1-1.9,1.11l-.18.06-.4.13a4.83,4.83,0,0,0-.59.17,2.23,2.23,0,0,0,.59,0c.3,0,.59-.12.59-.12a6.72,6.72,0,0,0,2.35-1.2h0A5.81,5.81,0,0,1,8.9,52.75s-.38.09-.77.15-.78.12-.78.14a3.32,3.32,0,0,0,.76,0l.52,0,.24,0a6.15,6.15,0,0,0,3-1.37h0A6.56,6.56,0,0,1,8.84,53.1H8.76l-.21,0-.29,0-.34,0c-.46,0-.93,0-.93,0a3.47,3.47,0,0,0,.89.11h.33l.29,0,.28,0a6.87,6.87,0,0,0,3.62-1.62l.14,0a6.06,6.06,0,0,1-6.8,1.39,6.08,6.08,0,0,1-4.15-5.57Zm-.06,1.7h0Zm-.24-1.13h0Zm.71,2.2Zm8.27,3.15h0Zm2-1.17h0ZM11.4,53h0Zm1.45-1.26h0Zm1-2.77a55.32,55.32,0,0,1-5.74-2,60.32,60.32,0,0,1-5.6-2.35l10.92-28.6c1.07.29,2.56.76,5.74,2a57.75,57.75,0,0,1,5.6,2.36Zm5.41-31.2a54.09,54.09,0,0,0-6.28-2.11.26.26,0,0,1-.14-.11.25.25,0,0,1,0-.17l.67-1.74s.21-.36,2.43.22c1.69.44,3.56,1.14,4.29,1.41l.07,0c2.69,1,5.71,2.44,6,3.13a.13.13,0,0,1,0,.1l-.67,1.75a.2.2,0,0,1-.12.12.25.25,0,0,1-.17,0A52.41,52.41,0,0,0,19.22,17.78ZM18.4,11a1.51,1.51,0,0,0,1.27-.76,1.38,1.38,0,0,0,.17-.71,5.13,5.13,0,0,0,4.45,1.7,1.44,1.44,0,0,0-.35.64,1.52,1.52,0,0,0,.44,1.42h0a5.27,5.27,0,0,1,1.36,4.35l-.5-.32h0a3.48,3.48,0,0,0,0-2.21,5.59,5.59,0,0,0-1.08-1.88L24,13a1.14,1.14,0,0,1-.3-.53,1.71,1.71,0,0,1,0-.64c0-.18.08-.29.06-.29a.73.73,0,0,0-.13.29,1.47,1.47,0,0,0-.05.71,1,1,0,0,0,.14.37,2.43,2.43,0,0,0,.19.27l.14.18.06.07a6.91,6.91,0,0,1,.54.86l0,.05a3.78,3.78,0,0,0-.55-.76l-.17-.19a2.72,2.72,0,0,1-.36-.43,1.62,1.62,0,0,1-.24-.5c0-.15,0-.25,0-.25a.51.51,0,0,0,0,.28,1.33,1.33,0,0,0,.21.57,3.87,3.87,0,0,0,.35.5l.17.21a3.73,3.73,0,0,1,.74,1.57,3.27,3.27,0,0,1,0,1.08,3,3,0,0,0-.1-1A4.91,4.91,0,0,0,24,14s-.21-.3-.43-.58a3.53,3.53,0,0,0-.49-.53,4,4,0,0,0,.4.64l.27.43.11.2a4.1,4.1,0,0,1,.54,1.39,2.67,2.67,0,0,1-.05,1.26l-.12-.06a4.07,4.07,0,0,0-.36-2.31l-.08-.15a2.37,2.37,0,0,0-.19-.31,1.77,1.77,0,0,0-.35-.4,3.57,3.57,0,0,0,.25.49,1.42,1.42,0,0,1,.08.18l.07.16,0,.11,0,.05a3.8,3.8,0,0,1,.16,2l-.19-.09a3.74,3.74,0,0,0-.09-1.6,3.66,3.66,0,0,0-.14-.35.79.79,0,0,0-.2-.32,1.87,1.87,0,0,0,.08.38c0,.19.07.37.07.37a3.28,3.28,0,0,1-.08,1.36l-.1-.05a2.76,2.76,0,0,0,.06-1.07,1.17,1.17,0,0,0-.05-.24.49.49,0,0,0-.1-.23s0,.13,0,.26,0,.24,0,.24a2.84,2.84,0,0,1-.22.88l-.1,0a3.64,3.64,0,0,0,.16-.63,1.54,1.54,0,0,0,0-.17c0-.08,0-.17,0-.17s-.06.07-.1.15l-.07.15a3.4,3.4,0,0,1-.31.52c-1-.42-1.82-.75-2.09-.85h0c-.7-.27-2.45-.92-4.1-1.37l.22-.33s.14-.23.1-.26-.24.11-.24.11l-.34.25a5.88,5.88,0,0,1,.58-.64l.22-.21c.11-.1.23-.21.22-.23s-.15,0-.28.11-.26.16-.26.16a5.57,5.57,0,0,0-.76.62,4.93,4.93,0,0,1,1.46-1.18l.05,0,.12-.06a3.21,3.21,0,0,1,.37-.18,4.59,4.59,0,0,0,.56-.23,2,2,0,0,0-.58.1,2.45,2.45,0,0,0-.38.12l-.17.07a5.44,5.44,0,0,0-1.89,1.34,4.23,4.23,0,0,1,1.29-1.08,8.74,8.74,0,0,1,2.07-.78l.33-.08a3,3,0,0,0,.72-.28,1,1,0,0,0,.47-.61A.45.45,0,0,0,20,10a2.19,2.19,0,0,1-.05.31,1,1,0,0,1-.44.51,2.27,2.27,0,0,1-.65.22l-.32.07a9.41,9.41,0,0,0-2.22.71,4.41,4.41,0,0,0-1.74,1.47l-.14,0A5.3,5.3,0,0,1,18.4,11Zm.71-6.66A4.92,4.92,0,1,1,22,10.64,4.92,4.92,0,0,1,19.11,4.3ZM25,11.07Zm-9.56.82Zm-1.93,4.63a63.73,63.73,0,0,1,10.8,3.9C20.51,19.17,17.16,18,13.47,16.52Zm.23,32.07A54.56,54.56,0,0,1,2.78,44.52C6.57,45.9,10,47.17,13.7,48.59ZM24.09,21.33c-3.15,9-6.39,17.06-9.9,25.8C17.31,38.15,20.53,30.14,24.09,21.33ZM13.86,47c3.2-9,6.42-17,9.91-25.8C20.55,30.19,17.31,38.24,13.86,47ZM3.68,43.12c3.19-9,6.42-17,9.9-25.8C10.36,26.3,7.12,34.35,3.68,43.12Zm9.82,3.75c3.2-9,6.42-17,9.91-25.8C20.19,30.05,17,38.1,13.5,46.87ZM3.37,43c3.12-9,6.34-17,9.9-25.8C10.11,26.2,6.88,34.26,3.37,43ZM25.52,19.85c-.05.08-.1.17-.19.19a.43.43,0,0,1-.27,0l-4.43-2h0l-.1-.06h0a5.29,5.29,0,0,0-.52-.29s-.3-.15-.28-.2.36,0,.36,0l.51.11h0c-.15-.09-.3-.18-.46-.26,0,0-.29-.16-.28-.21s.36,0,.36,0l.47.11h0L20.25,17s-.28-.17-.26-.22.35.05.35.05l.45.12v0l-.42-.26s-.28-.18-.26-.23.36.06.36.06l.47.13h0l-.45-.29s-.28-.19-.26-.23.36.05.36.05l.52.17L20.64,16s-.27-.19-.25-.23.35.06.35.06l.63.22a11.23,11.23,0,0,1,1.47.6A19.48,19.48,0,0,1,25.42,18c.25.17.63.33.61.68A3.17,3.17,0,0,1,25.52,19.85ZM16,16.19s-.35,0-.35,0L15,16h-.13l-1.52-.46a.43.43,0,0,1-.25-.15.43.43,0,0,1,0-.35c.1-.29.21-.57.31-.86s.08-.39.25-.46a2.13,2.13,0,0,1,.86.11c.31,0,.61.1.92.17l.13,0h0l.68.29s.31.13.29.18-.36,0-.36,0l-.41-.05v0l.37.16s.3.15.28.19-.36,0-.36,0l-.4-.06v0l.36.18s.3.15.28.19-.36,0-.36,0l-.4-.07v0l.36.18s.3.16.28.2-.35,0-.35,0l-.42-.08v0l.38.21s.29.17.27.21-.35,0-.35,0l-.44-.1v0l.41.23S16,16.15,16,16.19ZM4.13,46.25l-.46-.1v0l.38.22s.31.17.29.21-.34,0-.34,0l-.42-.1v0l.36.22s.3.18.28.22-.34,0-.34,0l-.39-.1,0,0,.35.22s.29.19.27.23-.34,0-.34,0l-.38-.12,0,0,.34.23s.29.19.27.23-.34,0-.34,0l-.38-.12,0,0,.35.24s.28.2.26.24-.34-.06-.34-.06l-.69-.23h0l-.13-.06c-.27-.15-.53-.31-.79-.48s-.61-.3-.71-.5.05-.35.11-.51.23-.56.34-.85A.44.44,0,0,1,1.84,45a.36.36,0,0,1,.28.06l1.45.66h0l.06,0,.05,0c.16.1.33.19.5.28,0,0,.31.15.29.2S4.13,46.25,4.13,46.25Zm4,1.56s.35,0,.35,0l.57.13h0l.11,0v0l4.63,1.46a.38.38,0,0,1,.23.15.36.36,0,0,1,0,.27,3.25,3.25,0,0,1-.38,1.2c-.23.28-.62.15-.92.1a19.67,19.67,0,0,1-2.85-.67A11.8,11.8,0,0,1,8.39,50l-.61-.26s-.32-.14-.31-.19.34,0,.34,0l.59.08-.5-.22s-.31-.15-.3-.2.35,0,.35,0l.52.08h0L8,49.06s-.31-.15-.3-.2.35,0,.35,0l.49.09v0l-.42-.21s-.31-.16-.29-.21.34,0,.34,0l.49.09h0l-.43-.22S8,48.21,8,48.16s.34,0,.34,0l.52.11h0c-.16-.08-.31-.17-.46-.26C8.41,48,8.11,47.86,8.13,47.81ZM6.48,55.28a1.75,1.75,0,0,1-.47.43,1.53,1.53,0,0,1-.61.21,1.64,1.64,0,0,1-1.21-.31,1.18,1.18,0,0,1-.4-.49.89.89,0,0,1-.06-.62.9.9,0,0,0,.18.54,1.34,1.34,0,0,0,.42.37l.32.13a1.16,1.16,0,0,1-.43-.39,1.5,1.5,0,0,0,.65.21,1.43,1.43,0,0,0,.62,0A1.58,1.58,0,0,0,6,55a1.47,1.47,0,0,0,.43-.54,1.21,1.21,0,0,1-.23.69l.06-.06a1.73,1.73,0,0,0,.47-1A1.55,1.55,0,0,1,6.48,55.28Zm-1.76-.09A3.23,3.23,0,0,0,5.46,55a3.39,3.39,0,0,0,.68-.35.94.94,0,0,1-1.42.58ZM25.38,9.82a3.7,3.7,0,0,0,.43-.25,4.22,4.22,0,0,1-2.76.57,4.65,4.65,0,0,0,2.23-.58,4.49,4.49,0,0,0,1.63-1.49A4.58,4.58,0,0,0,27.63,6a4.65,4.65,0,0,0-.35-2.28,4.36,4.36,0,0,1,.59,2.49,3.92,3.92,0,0,0,0-.6,4.68,4.68,0,0,0-.81-2.54,4.46,4.46,0,0,1-1.61,7,4.52,4.52,0,0,1-2.72.26A4.78,4.78,0,0,0,25.38,9.82ZM19.73,3.89A5,5,0,0,0,19,5.69a4.39,4.39,0,0,1,5.6-4.1,5.22,5.22,0,0,0-1.94.15,4.78,4.78,0,0,0-1.67.8A5,5,0,0,0,19.73,3.89ZM23.59,9.8a4.77,4.77,0,0,0,3.87-4.6,3.93,3.93,0,0,1-3.87,4.6Zm.68-.55A5.31,5.31,0,0,0,25.81,8.2a1.82,1.82,0,0,1-.74.32l.71-.73.74-.69a1.74,1.74,0,0,1-.27.64A5.43,5.43,0,0,0,27,6.54a3.13,3.13,0,0,1-2.77,2.71Zm-3.42-.06a6.94,6.94,0,0,0,.9.8,4.1,4.1,0,0,1-2.63-3.71,6.6,6.6,0,0,0,.55,1.3A3,3,0,0,1,19.52,7c.29.42.56.8.82,1.19s.52.78.79,1.21A2.83,2.83,0,0,1,20.85,9.19Z" transform="translate(-0.31 -0.61)"/><text class="cls-4" transform="translate(16.04 48.15)">Barb<tspan class="cls-5" x="81.02" y="0">e</tspan><tspan x="96.86" y="0">rs</tspan></text></svg>